<svg width="20" height="20" viewBox="0 0 20 20" fill="none" xmlns="http://www.w3.org/2000/svg">
<path d="M2.91663 16.6667C2.58329 16.6667 2.29163 16.5417 2.04163 16.2917C1.79163 16.0417 1.66663 15.75 1.66663 15.4167V4.58333C1.66663 4.25 1.79163 3.95833 2.04163 3.70833C2.29163 3.45833 2.58329 3.33333 2.91663 3.33333H17.0833C17.4166 3.33333 17.7083 3.45833 17.9583 3.70833C18.2083 3.95833 18.3333 4.25 18.3333 4.58333V15.4167C18.3333 15.75 18.2083 16.0417 17.9583 16.2917C17.7083 16.5417 17.4166 16.6667 17.0833 16.6667H2.91663ZM17.0833 5.72917L10.3333 10.1458C10.2777 10.1736 10.2257 10.1979 10.177 10.2187C10.1284 10.2396 10.0694 10.25 9.99996 10.25C9.93051 10.25 9.87149 10.2396 9.82288 10.2187C9.77427 10.1979 9.72218 10.1736 9.66663 10.1458L2.91663 5.72917V15.4167H17.0833V5.72917ZM9.99996 9.125L17 4.58333H3.02079L9.99996 9.125ZM2.91663 5.72917V5.875V5.05208V5.0625V4.58333V5.0625V5.04167V5.875V5.72917V15.4167V5.72917Z" fill="white"/>
</svg>
