<svg width="20" height="20" viewBox="0 0 20 20" fill="none" xmlns="http://www.w3.org/2000/svg">
<path d="M19.4902 9.12156L10.8783 0.509999C10.3827 0.0140619 9.57828 0.0140619 9.08188 0.509999L7.29375 2.29844L9.56219 4.56687C10.0895 4.38891 10.6939 4.50828 11.1141 4.92844C11.5364 5.35125 11.6548 5.96078 11.4725 6.48984L13.6588 8.67625C14.1877 8.49391 14.7981 8.61172 15.2203 9.03484C15.8109 9.625 15.8109 10.5817 15.2203 11.1722C15.08 11.3126 14.9133 11.424 14.7299 11.5C14.5465 11.576 14.3499 11.6151 14.1513 11.6151C13.9528 11.6151 13.7562 11.576 13.5728 11.5C13.3894 11.424 13.2227 11.3126 13.0823 11.1722C12.8715 10.9612 12.7277 10.6925 12.6692 10.4C12.6107 10.1075 12.64 9.80418 12.7534 9.52828L10.7147 7.48953L10.7144 12.8553C10.8623 12.9282 10.9973 13.0246 11.1142 13.1409C11.7045 13.7311 11.7045 14.6875 11.1142 15.2789C10.5238 15.8691 9.56672 15.8691 8.97688 15.2789C8.38657 14.6877 8.38657 13.7312 8.97688 13.1409C9.11831 12.9993 9.28652 12.8872 9.47172 12.8112V7.39578C9.28638 7.32003 9.11811 7.20787 8.97688 7.06594C8.52969 6.61906 8.42203 5.96281 8.65141 5.41344L6.415 3.17703L0.510002 9.08172C0.27177 9.32002 0.137939 9.64319 0.137939 9.98016C0.137939 10.3171 0.27177 10.6403 0.510002 10.8786L9.12203 19.4902C9.61797 19.9861 10.422 19.9861 10.9188 19.4902L19.4903 10.9186C19.7285 10.6802 19.8623 10.357 19.8622 10.02C19.8622 9.68307 19.7284 9.35989 19.4902 9.12156Z" fill="#F34F29"/>
</svg>
