<svg width="20" height="20" viewBox="0 0 20 20" fill="none" xmlns="http://www.w3.org/2000/svg">
<path d="M2.97454 17.7931L1.41125 0.259521H18.5888L17.0238 17.7905L9.98954 19.7405L2.97454 17.7931Z" fill="#E44D26"/>
<path d="M10 18.25L15.6841 16.6741L17.0214 1.69312H10V18.25Z" fill="#F16529"/>
<path d="M10 8.1961H7.15438L6.95782 5.99391H10V3.8436H4.60767L4.65923 4.42047L5.18767 10.3466H10V8.1961ZM10 13.7809L9.99048 13.7836L7.59563 13.1367L7.44267 11.4219H5.28376L5.58501 14.7983L9.99017 16.0211L10 16.0184V13.7809Z" fill="#EBEBEB"/>
<path d="M9.99249 8.1961V10.3466H12.6405L12.3909 13.1355L9.99249 13.7828V16.0202L14.4011 14.7983L14.4334 14.435L14.9387 8.7736L14.9911 8.1961H14.4117H9.99249ZM9.99249 3.8436V5.99391H15.1869L15.23 5.51078L15.3281 4.42047L15.3795 3.8436H9.99249Z" fill="white"/>
</svg>
