<svg width="20" height="20" viewBox="0 0 20 20" fill="none" xmlns="http://www.w3.org/2000/svg">
<path d="M10 13.7917C11.4444 12.625 12.5347 11.5035 13.2708 10.4271C14.0069 9.35069 14.375 8.34722 14.375 7.41667C14.375 6.59722 14.2257 5.90278 13.9271 5.33333C13.6285 4.76389 13.2604 4.29861 12.8229 3.9375C12.3854 3.57639 11.9097 3.31597 11.3958 3.15625C10.8819 2.99653 10.4167 2.91667 10 2.91667C9.58333 2.91667 9.11806 2.99653 8.60417 3.15625C8.09028 3.31597 7.61458 3.57639 7.17708 3.9375C6.73958 4.29861 6.37153 4.76389 6.07292 5.33333C5.77431 5.90278 5.625 6.59722 5.625 7.41667C5.625 8.34722 5.99306 9.35069 6.72917 10.4271C7.46528 11.5035 8.55556 12.625 10 13.7917ZM10 15.1458C9.90278 15.1458 9.8125 15.1354 9.72917 15.1146C9.64583 15.0938 9.56944 15.0556 9.5 15C7.76389 13.6528 6.47569 12.3576 5.63542 11.1146C4.79514 9.87153 4.375 8.63889 4.375 7.41667C4.375 6.47222 4.54514 5.64236 4.88542 4.92708C5.22569 4.21181 5.66667 3.61111 6.20833 3.125C6.75 2.63889 7.35417 2.27431 8.02083 2.03125C8.6875 1.78819 9.34722 1.66667 10 1.66667C10.6528 1.66667 11.3125 1.78819 11.9792 2.03125C12.6458 2.27431 13.25 2.63889 13.7917 3.125C14.3333 3.61111 14.7743 4.21181 15.1146 4.92708C15.4549 5.64236 15.625 6.47222 15.625 7.41667C15.625 8.63889 15.2049 9.87153 14.3646 11.1146C13.5243 12.3576 12.2361 13.6528 10.5 15C10.4306 15.0556 10.3542 15.0938 10.2708 15.1146C10.1875 15.1354 10.0972 15.1458 10 15.1458ZM10 8.75C10.4028 8.75 10.7465 8.60764 11.0312 8.32292C11.316 8.03819 11.4583 7.69444 11.4583 7.29167C11.4583 6.88889 11.316 6.54514 11.0312 6.26042C10.7465 5.97569 10.4028 5.83333 10 5.83333C9.59722 5.83333 9.25347 5.97569 8.96875 6.26042C8.68403 6.54514 8.54167 6.88889 8.54167 7.29167C8.54167 7.69444 8.68403 8.03819 8.96875 8.32292C9.25347 8.60764 9.59722 8.75 10 8.75ZM5 18.3333C4.81944 18.3333 4.67014 18.2743 4.55208 18.1563C4.43403 18.0382 4.375 17.8889 4.375 17.7083C4.375 17.5278 4.43403 17.3785 4.55208 17.2604C4.67014 17.1424 4.81944 17.0833 5 17.0833H15C15.1806 17.0833 15.3299 17.1424 15.4479 17.2604C15.566 17.3785 15.625 17.5278 15.625 17.7083C15.625 17.8889 15.566 18.0382 15.4479 18.1563C15.3299 18.2743 15.1806 18.3333 15 18.3333H5Z" fill="white"/>
</svg>
