<svg width="20" height="20" viewBox="0 0 20 20" fill="none" xmlns="http://www.w3.org/2000/svg">
<path fill-rule="evenodd" clip-rule="evenodd" d="M10.0147 19.7225C15.3702 19.7144 19.7055 15.358 19.7055 9.98421C19.7055 4.6978 15.3902 0.344051 10.2347 0.25202C4.82031 0.155457 0.295932 4.54889 0.294526 9.87655C0.292963 15.3576 4.6089 19.7303 10.0147 19.7225ZM9.9989 0.723426C15.1406 0.721707 19.2373 4.89921 19.2358 10.1422C19.2341 15.092 15.0287 19.2328 10.0027 19.2339C4.88218 19.235 0.764369 15.0834 0.764526 9.92015C0.764838 4.88999 4.94671 0.725145 9.9989 0.723426ZM6.11828 5.60874C6.20234 5.8889 5.96703 5.98639 5.71687 6.00593C5.45359 6.02624 5.19046 6.04608 4.88484 6.06936C5.89359 9.07468 6.88718 12.0355 7.90437 15.0651C7.97687 14.9466 8.00671 14.9131 8.01984 14.8741C8.57828 13.205 9.13984 11.537 9.68406 9.86327C9.73374 9.71061 9.70906 9.50843 9.65468 9.35155C9.36671 8.5203 9.02171 7.70718 8.76921 6.86593C8.59656 6.28999 8.36749 5.91733 7.68671 5.98405C7.57078 5.99546 7.42921 5.74593 7.29937 5.61702C7.4564 5.52327 7.61234 5.35077 7.77078 5.34843C9.15705 5.32712 10.5436 5.32754 11.9298 5.34968C12.0889 5.35233 12.2448 5.52936 12.4019 5.62546C12.2644 5.75108 12.1458 5.93952 11.985 5.98811C11.727 6.06593 11.4409 6.05124 11.1322 6.07874L14.1555 15.0725C14.6134 13.5512 15.0395 12.1544 15.4539 10.7539C15.8236 9.50374 15.6033 8.33624 14.9348 7.23515C14.7339 6.90405 14.487 6.5828 14.3731 6.22171C14.2437 5.81093 14.1362 5.34327 14.2048 4.93124C14.3212 4.23296 14.857 3.88624 15.582 3.81983C11.6145 0.137645 5.37984 1.45577 3.08249 5.45655C3.96687 5.41577 4.81124 5.36218 5.65624 5.35061C5.81593 5.34858 6.08078 5.48358 6.11828 5.60874ZM7.69906 17.7917C7.68062 17.8456 7.67953 17.9056 7.66499 17.9951C9.37484 18.4692 11.0517 18.435 12.768 17.8567L10.1461 10.6755C9.30702 13.1147 8.50234 15.4528 7.69906 17.7917ZM6.37781 17.467L2.42765 6.63108C0.645619 10.112 2.00124 15.423 6.37781 17.467ZM18.3197 10.5042C18.445 8.85827 17.8772 6.57936 17.3869 6.26593C17.3322 6.8714 17.3703 7.54499 17.1966 8.15874C16.7877 9.60483 16.2877 11.0258 15.8061 12.4506C15.2827 13.9994 14.7386 15.5411 14.2034 17.0859C16.7178 15.5955 18.0995 13.3956 18.3197 10.5042Z" fill="#494949"/>
</svg>
